<svg width="90" height="79" viewBox="0 0 90 79" fill="none" xmlns="http://www.w3.org/2000/svg">
<path fill-rule="evenodd" clip-rule="evenodd" d="M80.4197 54.61C74.3368 68.4561 60.5009 78.1304 44.4022 78.1304C23.3379 78.1304 6.14218 61.5675 5.12782 40.7547L2.59187 43.7794C2.07118 44.4004 1.14565 44.4817 0.524635 43.961C-0.0963821 43.4404 -0.177719 42.5148 0.342964 41.8938L6.52074 34.5255L13.7526 41.2681C14.3453 41.8207 14.3778 42.7492 13.8252 43.342C13.2726 43.9347 12.344 43.9673 11.7513 43.4146L8.03277 39.9477C8.63452 59.5166 24.6873 75.1956 44.4022 75.1956C59.295 75.1956 72.1013 66.2482 77.7327 53.4296C78.0587 52.6876 78.9244 52.3504 79.6664 52.6763C80.4084 53.0023 80.7456 53.868 80.4197 54.61ZM48.1139 51.4344H40.5931V57.6082H36.3051V51.4344H31.6579V47.8872H36.3051V44.8115H31.6579V41.2868H36.3051V24.9205H48.3608C51.8631 24.9205 54.6394 25.8111 56.6899 27.5921C58.7403 29.3732 59.7656 31.7829 59.7656 34.8211C59.7656 38.0091 58.7777 40.4711 56.8021 42.2073C54.8415 43.9285 52.0502 44.7966 48.4282 44.8115H40.5931V47.8872H48.1139V51.4344ZM40.5931 41.2868H48.3608C50.6807 41.2868 52.4468 40.7405 53.6591 39.648C54.8714 38.5554 55.4776 36.9614 55.4776 34.866C55.4776 32.9652 54.849 31.4311 53.5917 30.2637C52.3345 29.0813 50.6358 28.4827 48.4955 28.4677H40.5931V41.2868ZM8.38618 23.8579C14.469 10.0118 28.305 0.33744 44.4037 0.33744C65.5496 0.33744 82.797 17.029 83.6891 37.9554L86.9348 34.3992C87.4811 33.8006 88.4092 33.7582 89.0078 34.3045C89.6064 34.8508 89.6488 35.779 89.1025 36.3776L82.3166 43.8128L74.363 37.5304C73.727 37.028 73.6187 36.1053 74.121 35.4693C74.6233 34.8334 75.5461 34.725 76.1821 35.2274L80.782 38.8608C80.3573 19.1335 64.2328 3.27222 44.4037 3.27222C29.5109 3.27222 16.7046 12.2196 11.0731 25.0383C10.7471 25.7802 9.88141 26.1175 9.13943 25.7915C8.39746 25.4656 8.06023 24.5998 8.38618 23.8579Z" fill="#FB6900"/>
</svg>
